<?xml version="1.0" encoding="UTF-8"?><svg id="Layer_2" xmlns="http://www.w3.org/2000/svg" viewBox="0 0 306.06 306.74"><defs><style>.cls-1{fill:#fdcd02;}.cls-2{fill:#ebbf02;}.cls-3{opacity:.2;}</style></defs><g id="_ëÎÓÈ_1"><g><g class="cls-3"><path d="m158.15,80.23c4.53,0,8.2-3.67,8.2-8.2V19.13c0-4.53-3.67-8.2-8.2-8.2s-8.2,3.67-8.2,8.2v52.9c0,4.53,3.67,8.2,8.2,8.2Z"/><path d="m90.97,103.25c1.6,1.6,3.7,2.4,5.8,2.4s4.2-.8,5.8-2.4c3.2-3.2,3.2-8.39,0-11.59l-37.41-37.41c-3.2-3.2-8.39-3.2-11.59,0-3.2,3.2-3.2,8.39,0,11.59l37.41,37.4Z"/><path d="m79.54,158.84c0-4.53-3.67-8.2-8.2-8.2H18.45c-4.53,0-8.2,3.67-8.2,8.2s3.67,8.2,8.2,8.2h52.9c4.53,0,8.2-3.67,8.2-8.2Z"/><path d="m90.97,214.42l-37.41,37.41c-3.2,3.2-3.2,8.39,0,11.59,1.6,1.6,3.7,2.4,5.8,2.4s4.2-.8,5.8-2.4l37.41-37.4c3.2-3.2,3.2-8.39,0-11.59-3.2-3.2-8.39-3.2-11.59,0Z"/><path d="m158.15,90.56h0c-37.71,0-68.27,30.57-68.27,68.27s30.57,68.27,68.27,68.27h0c37.71,0,68.27-30.57,68.27-68.27s-30.57-68.27-68.27-68.27Z"/><path d="m158.15,237.45c-4.53,0-8.2,3.67-8.2,8.2v52.9c0,4.53,3.67,8.2,8.2,8.2s8.2-3.67,8.2-8.2v-52.9c0-4.53-3.67-8.2-8.2-8.2Z"/><path d="m225.33,214.42c-3.2-3.2-8.39-3.2-11.59,0-3.2,3.2-3.2,8.39,0,11.6l37.4,37.4c1.6,1.6,3.7,2.4,5.8,2.4s4.2-.8,5.8-2.4c3.2-3.2,3.2-8.39,0-11.59l-37.41-37.41Z"/><path d="m297.86,150.64h-52.9c-4.53,0-8.2,3.67-8.2,8.2s3.67,8.2,8.2,8.2h52.9c4.53,0,8.2-3.67,8.2-8.2s-3.67-8.2-8.2-8.2Z"/><path d="m219.54,105.65c2.1,0,4.2-.8,5.8-2.4l37.41-37.4c3.2-3.2,3.2-8.39,0-11.6-3.2-3.2-8.39-3.2-11.6,0l-37.4,37.41c-3.2,3.2-3.2,8.39,0,11.59,1.6,1.6,3.7,2.4,5.8,2.4Z"/></g><g><path class="cls-1" d="m79.63,147.91c0,37.71,30.57,68.27,68.27,68.27V79.63c-37.71,0-68.27,30.57-68.27,68.27Z"/><path class="cls-1" d="m139.71,8.2v52.9c0,4.53,3.67,8.2,8.2,8.2V0c-4.53,0-8.2,3.67-8.2,8.2Z"/><path class="cls-1" d="m139.71,234.71v52.9c0,4.53,3.67,8.2,8.2,8.2v-69.3c-4.53,0-8.2,3.67-8.2,8.2Z"/><path class="cls-1" d="m80.73,92.32c1.6,1.6,3.7,2.4,5.8,2.4s4.2-.8,5.8-2.4c3.2-3.2,3.2-8.39,0-11.59l-37.41-37.41c-3.2-3.2-8.39-3.2-11.59,0-3.2,3.2-3.2,8.39,0,11.59l37.41,37.4Z"/><path class="cls-1" d="m69.3,147.91c0-4.53-3.67-8.2-8.2-8.2H8.2c-4.53,0-8.2,3.67-8.2,8.2s3.67,8.2,8.2,8.2h52.9c4.53,0,8.2-3.67,8.2-8.2Z"/><path class="cls-1" d="m80.73,203.49l-37.41,37.41c-3.2,3.2-3.2,8.39,0,11.59,1.6,1.6,3.7,2.4,5.8,2.4s4.2-.8,5.8-2.4l37.41-37.41c3.2-3.2,3.2-8.39,0-11.59-3.2-3.2-8.39-3.2-11.59,0Z"/><g><path class="cls-2" d="m216.18,147.91c0-37.71-30.57-68.27-68.27-68.27h0v136.54h0c37.71,0,68.27-30.57,68.27-68.27Z"/><path class="cls-2" d="m156.1,61.1V8.2c0-4.53-3.67-8.2-8.2-8.2v69.3c4.53,0,8.2-3.67,8.2-8.2Z"/><path class="cls-2" d="m156.1,287.61v-52.9c0-4.53-3.67-8.2-8.2-8.2v69.3c4.53,0,8.2-3.67,8.2-8.2Z"/><path class="cls-2" d="m215.09,203.49c-3.2-3.2-8.39-3.2-11.6,0-3.2,3.2-3.2,8.39,0,11.59l37.41,37.41c1.6,1.6,3.7,2.4,5.8,2.4s4.2-.8,5.8-2.4c3.2-3.2,3.2-8.39,0-11.59l-37.4-37.41Z"/><path class="cls-2" d="m287.61,139.71h-52.9c-4.53,0-8.2,3.67-8.2,8.2s3.67,8.2,8.2,8.2h52.9c4.53,0,8.2-3.67,8.2-8.2s-3.67-8.2-8.2-8.2Z"/><path class="cls-2" d="m209.29,94.72c2.1,0,4.2-.8,5.8-2.4l37.4-37.4c3.2-3.2,3.2-8.39,0-11.6-3.2-3.2-8.39-3.2-11.59,0l-37.41,37.41c-3.2,3.2-3.2,8.39,0,11.59,1.6,1.6,3.7,2.4,5.8,2.4Z"/></g></g></g></g></svg>