<?xml version="1.0" encoding="UTF-8"?><svg id="Layer_2" xmlns="http://www.w3.org/2000/svg" viewBox="0 0 342.01 222.41"><defs><style>.cls-1{fill:#ebebeb;}.cls-2{fill:#fff;}.cls-3{fill:#c2c2c2;}.cls-4{fill:#d4d4d4;}.cls-5{opacity:.2;}</style></defs><g id="_ëÎÓÈ_1"><g><path class="cls-5" d="m342.01,120.56c0-22.78-18.42-41.25-41.17-41.35-1.96-36.26-31.98-65.06-68.72-65.06-9.17,0-17.92,1.8-25.92,5.06-10.93,4.45-20.47,11.63-27.75,20.7-5.56-2.08-11.58-3.22-17.86-3.22-27.89,0-50.54,22.36-51.04,50.12-29.43,1.27-52.9,25.52-52.9,55.26,0,2.21.14,4.38.4,6.52-1.85-.28-3.75-.43-5.68-.43-20.5,0-37.12,16.62-37.12,37.12s16.62,37.12,37.12,37.12h212.36c24.74,0,44.8-20.06,44.8-44.8,0-5.64-1.05-11.03-2.95-16,20.53-2.42,36.46-19.87,36.46-41.05Z"/><g><path class="cls-3" d="m286.6,65.06C284.65,28.8,254.63,0,217.88,0c-9.17,0-17.92,1.8-25.92,5.06v142.69h94.47c22.84,0,41.35-18.51,41.35-41.35s-18.42-41.25-41.17-41.35Z"/><path class="cls-4" d="m164.21,25.76c-5.56-2.08-11.58-3.22-17.86-3.22-28.2,0-51.06,22.86-51.06,51.06,0,2.04.13,4.04.37,6.02-1.71-.26-3.46-.4-5.24-.4-18.92,0-34.26,15.34-34.26,34.26s15.34,34.26,34.26,34.26h101.55V5.06c-10.93,4.45-20.47,11.63-27.75,20.7Z"/></g><g><path class="cls-1" d="m249.67,118.66c-2.12-39.28-34.64-70.48-74.45-70.48-9.94,0-19.42,1.95-28.08,5.48v154.58h102.34c24.74,0,44.8-20.06,44.8-44.8s-19.95-44.68-44.6-44.79Z"/><path class="cls-2" d="m117.07,76.09c-6.02-2.25-12.54-3.49-19.35-3.49-30.55,0-55.32,24.77-55.32,55.32,0,2.21.14,4.38.4,6.52-1.85-.28-3.75-.43-5.68-.43-20.5,0-37.12,16.62-37.12,37.12s16.62,37.12,37.12,37.12h110.02V53.67c-11.84,4.83-22.17,12.6-30.06,22.43Z"/></g></g></g></svg>