<?xml version="1.0" encoding="UTF-8"?><svg id="Layer_2" xmlns="http://www.w3.org/2000/svg" viewBox="0 0 376.36 303.25"><defs><style>.cls-1{fill:#ebebeb;}.cls-2{fill:#fdcd02;}.cls-3{fill:#ebbf02;}.cls-4{fill:#fff;}.cls-5{fill:#78d9ff;}.cls-6{opacity:.2;}</style></defs><g id="_ëÎÓÈ_1"><g><g class="cls-6"><path d="m109.5,263.11l6.24-17.47c1.3-3.64-.6-7.65-4.24-8.95-3.64-1.3-7.65.6-8.95,4.24l-6.24,17.47c-1.3,3.64.6,7.65,4.24,8.95.78.28,1.57.41,2.35.41,2.87,0,5.57-1.78,6.59-4.65Z"/><path d="m122.9,272.18c-3.64-1.3-7.64.6-8.94,4.24l-6.24,17.47c-1.3,3.64.6,7.64,4.24,8.95.78.28,1.57.41,2.35.41,2.87,0,5.57-1.78,6.59-4.65l6.24-17.47c1.3-3.64-.6-7.65-4.24-8.95Z"/><path d="m164.19,272.18c-3.64-1.3-7.64.6-8.94,4.24l-6.24,17.47c-1.3,3.64.6,7.65,4.24,8.95.78.28,1.57.41,2.35.41,2.87,0,5.57-1.78,6.59-4.65l6.24-17.47c1.3-3.64-.6-7.65-4.24-8.95Z"/><path d="m150.59,263.11l6.24-17.47c1.3-3.64-.6-7.65-4.24-8.95-3.64-1.3-7.64.6-8.94,4.24l-6.24,17.47c-1.3,3.64.6,7.65,4.24,8.95.78.28,1.57.41,2.35.41,2.87,0,5.57-1.78,6.59-4.65Z"/><path d="m193.67,236.69c-3.64-1.3-7.65.6-8.94,4.24l-6.24,17.47c-1.3,3.64.6,7.65,4.24,8.95.78.28,1.57.41,2.35.41,2.87,0,5.57-1.78,6.59-4.65l6.24-17.47c1.3-3.64-.6-7.65-4.24-8.95Z"/><path d="m278.65,59.51c2.99,0,5.42-2.42,5.42-5.42V19.15c0-2.99-2.42-5.42-5.42-5.42s-5.42,2.42-5.42,5.42v34.94c0,2.99,2.42,5.42,5.42,5.42Z"/><path d="m234.28,74.72c1.06,1.06,2.44,1.59,3.83,1.59s2.77-.53,3.83-1.59c2.11-2.11,2.11-5.54,0-7.66l-24.71-24.71c-2.11-2.11-5.54-2.11-7.66,0s-2.11,5.54,0,7.66l24.71,24.71Z"/><path d="m323.75,111.43c0-24.91-20.19-45.1-45.1-45.1h0c-18.94,0-35.14,11.68-41.82,28.22-13.31-14.88-32.66-24.26-54.2-24.26-9.69,0-18.93,1.92-27.39,5.36-11.55,4.71-21.62,12.28-29.32,21.85-5.87-2.19-12.23-3.4-18.87-3.4-29.79,0-53.94,24.15-53.94,53.94,0,2.15.14,4.27.39,6.36-1.81-.28-3.66-.42-5.54-.42-19.99,0-36.2,16.21-36.2,36.2s16.21,36.2,36.2,36.2h207.08c24.13,0,43.68-19.56,43.68-43.68,0-10.38-3.62-19.9-9.67-27.39,19.89-4.7,34.69-22.55,34.69-43.88Z"/><path d="m323.03,148.15c-2.11-2.11-5.54-2.11-7.66,0-2.11,2.11-2.11,5.54,0,7.66l24.71,24.71c1.06,1.06,2.44,1.59,3.83,1.59s2.77-.53,3.83-1.59c2.11-2.11,2.11-5.54,0-7.66l-24.71-24.71Z"/><path d="m370.94,106.02h-34.94c-2.99,0-5.42,2.42-5.42,5.42s2.42,5.42,5.42,5.42h34.94c2.99,0,5.42-2.42,5.42-5.42s-2.42-5.42-5.42-5.42Z"/><path d="m319.2,76.3c1.39,0,2.77-.53,3.83-1.59l24.71-24.71c2.11-2.11,2.11-5.54,0-7.66-2.12-2.11-5.54-2.11-7.66,0l-24.71,24.71c-2.11,2.12-2.11,5.54,0,7.66,1.06,1.06,2.44,1.59,3.83,1.59Z"/></g><g><g><path class="cls-5" d="m91.14,254.02c-.78,0-1.58-.13-2.35-.41-3.64-1.3-5.54-5.3-4.24-8.95l6.24-17.47c1.3-3.64,5.31-5.54,8.94-4.24,3.64,1.3,5.54,5.31,4.24,8.95l-6.24,17.47c-1.02,2.86-3.72,4.65-6.59,4.65Z"/><path class="cls-5" d="m102.54,289.51c-.78,0-1.58-.13-2.35-.41-3.64-1.3-5.54-5.31-4.24-8.95l6.24-17.47c1.3-3.64,5.31-5.54,8.94-4.24,3.64,1.3,5.54,5.31,4.24,8.95l-6.24,17.47c-1.02,2.86-3.72,4.65-6.59,4.65Z"/><path class="cls-5" d="m143.83,289.51c-.78,0-1.58-.13-2.35-.41-3.64-1.3-5.54-5.31-4.24-8.95l6.24-17.47c1.3-3.64,5.31-5.54,8.94-4.24,3.64,1.3,5.54,5.3,4.24,8.95l-6.24,17.47c-1.02,2.86-3.72,4.65-6.59,4.65Z"/><path class="cls-5" d="m132.22,254.02c-.78,0-1.58-.13-2.35-.41-3.64-1.3-5.54-5.31-4.24-8.95l6.24-17.47c1.3-3.64,5.31-5.54,8.94-4.24,3.64,1.3,5.54,5.31,4.24,8.95l-6.24,17.47c-1.02,2.86-3.72,4.65-6.59,4.65Z"/><path class="cls-5" d="m173.31,254.02c-.78,0-1.58-.13-2.35-.41-3.64-1.3-5.54-5.31-4.24-8.95l6.24-17.47c1.3-3.64,5.31-5.54,8.94-4.24,3.64,1.3,5.54,5.31,4.24,8.95l-6.24,17.47c-1.02,2.86-3.72,4.65-6.59,4.65Z"/></g><g><path class="cls-2" d="m221.79,97.7c0,24.91,20.19,45.1,45.1,45.1V52.6c-24.91,0-45.1,20.19-45.1,45.1Z"/><path class="cls-2" d="m261.47,5.42v34.94c0,2.99,2.42,5.42,5.42,5.42V0c-2.99,0-5.42,2.42-5.42,5.42Z"/><path class="cls-2" d="m261.47,155.04v34.94c0,2.99,2.42,5.42,5.42,5.42v-45.77c-2.99,0-5.42,2.42-5.42,5.42Z"/><path class="cls-2" d="m222.51,60.98c1.06,1.06,2.44,1.59,3.83,1.59s2.77-.53,3.83-1.59c2.11-2.11,2.11-5.54,0-7.66l-24.71-24.71c-2.11-2.11-5.54-2.11-7.66,0-2.11,2.11-2.11,5.54,0,7.66l24.71,24.71Z"/><path class="cls-2" d="m214.96,97.7c0-2.99-2.42-5.42-5.42-5.42h-34.94c-2.99,0-5.42,2.42-5.42,5.42s2.42,5.42,5.42,5.42h34.94c2.99,0,5.42-2.42,5.42-5.42Z"/><path class="cls-2" d="m222.51,134.42l-24.71,24.71c-2.11,2.11-2.12,5.54,0,7.66,1.06,1.06,2.44,1.59,3.83,1.59s2.77-.53,3.83-1.59l24.71-24.71c2.11-2.11,2.12-5.54,0-7.66-2.11-2.12-5.54-2.11-7.66,0Z"/><g><path class="cls-3" d="m311.98,97.7c0-24.91-20.19-45.1-45.1-45.1h0v90.2h0c24.91,0,45.1-20.19,45.1-45.1Z"/><path class="cls-3" d="m272.3,40.36V5.42c0-2.99-2.42-5.42-5.42-5.42v45.77c2.99,0,5.42-2.42,5.42-5.42Z"/><path class="cls-3" d="m272.3,189.98v-34.94c0-2.99-2.42-5.42-5.42-5.42v45.77c2.99,0,5.42-2.42,5.42-5.42Z"/><path class="cls-3" d="m311.26,134.42c-2.12-2.12-5.54-2.12-7.66,0-2.11,2.11-2.11,5.54,0,7.66l24.71,24.71c1.06,1.06,2.44,1.59,3.83,1.59s2.77-.53,3.83-1.59c2.11-2.11,2.11-5.54,0-7.66l-24.71-24.71Z"/><path class="cls-3" d="m359.17,92.28h-34.94c-2.99,0-5.42,2.42-5.42,5.42s2.42,5.42,5.42,5.42h34.94c2.99,0,5.42-2.42,5.42-5.42s-2.42-5.42-5.42-5.42Z"/><path class="cls-3" d="m307.43,62.57c1.39,0,2.77-.53,3.83-1.59l24.71-24.71c2.11-2.12,2.11-5.54,0-7.66s-5.54-2.11-7.66,0l-24.71,24.71c-2.11,2.11-2.11,5.54,0,7.66,1.06,1.06,2.44,1.59,3.83,1.59Z"/></g></g><path class="cls-4" d="m114.16,83.78c-5.87-2.19-12.23-3.4-18.87-3.4-29.79,0-53.94,24.15-53.94,53.94,0,2.15.14,4.27.39,6.36-1.81-.28-3.66-.42-5.54-.42-19.99,0-36.2,16.21-36.2,36.2s16.21,36.2,36.2,36.2h107.28V61.93c-11.55,4.71-21.62,12.28-29.32,21.85Z"/><path class="cls-1" d="m243.47,125.29c-2.07-38.3-33.78-68.73-72.6-68.73-9.69,0-18.93,1.92-27.39,5.36v150.73h99.8c24.13,0,43.68-19.56,43.68-43.68s-19.45-43.57-43.49-43.68Z"/></g></g></g></svg>