<?xml version="1.0" encoding="UTF-8"?><svg id="Layer_2" xmlns="http://www.w3.org/2000/svg" viewBox="0 0 344.35 176.07"><defs><style>.cls-1{fill:none;}.cls-2{fill:#ebebeb;}.cls-3{fill:#fff;}.cls-4{fill:#78d9ff;}.cls-5{opacity:.2;}</style></defs><g id="_ëÎÓÈ_1"><g><path class="cls-1" d="m325.7,102.65c0-7.55-6.15-13.7-13.7-13.7-5.45,0-9.89,4.44-9.89,9.89v.31c0,1.76-1.43,3.19-3.19,3.19-.54,0-1.05-.15-1.49-.39,3.57,4.21,6.38,9.08,8.22,14.4h6.36c7.55,0,13.7-6.15,13.7-13.7Z"/><path class="cls-4" d="m297.43,101.95c-.48-.56-.97-1.11-1.47-1.65.28.71.8,1.29,1.47,1.65Z"/><path class="cls-5" d="m327.45,131.29h-19.35c0-.08,0-.16,0-.24,0-2.85-.28-5.62-.78-8.32h4.67c11.07,0,20.07-9.01,20.07-20.07s-9.01-20.07-20.07-20.07c-8.97,0-16.27,7.3-16.27,16.27v.31c0,.41.08.79.22,1.15-8.17-8.73-19.78-14.22-32.67-14.27-2.13-39.48-34.82-70.84-74.83-70.84-9.99,0-19.51,1.98-28.23,5.53-11.9,4.85-22.29,12.65-30.22,22.52-6.05-2.26-12.61-3.5-19.45-3.5-30.71,0-55.6,24.89-55.6,55.6,0,2.22.14,4.4.4,6.56-1.86-.29-3.77-.43-5.71-.43-20.6,0-37.31,16.7-37.31,37.31s16.7,37.31,37.31,37.31h213.43c22.62,0,41.33-16.68,44.53-38.41h19.83c5.8,0,10.52,4.72,10.52,10.52s-4.72,10.52-10.52,10.52c-1.76,0-3.19,1.43-3.19,3.19s1.43,3.19,3.19,3.19c9.32,0,16.89-7.58,16.89-16.89s-7.58-16.89-16.89-16.89Zm-30.02-29.34c-.67-.36-1.19-.94-1.47-1.65.5.54.99,1.09,1.47,1.65.45.24.95.39,1.49.39,1.76,0,3.19-1.43,3.19-3.19v-.31c0-5.45,4.44-9.89,9.89-9.89,7.56,0,13.7,6.15,13.7,13.7s-6.15,13.7-13.7,13.7h-6.36c-1.84-5.32-4.65-10.19-8.22-14.4Z"/><g><path class="cls-1" d="m313.35,87.46c0-7.55-6.15-13.7-13.7-13.7-5.45,0-9.89,4.44-9.89,9.89v.31c0,1.76-1.43,3.19-3.19,3.19-.54,0-1.05-.15-1.49-.39,3.57,4.21,6.38,9.08,8.22,14.4h6.36c7.56,0,13.7-6.15,13.7-13.7Z"/><path class="cls-3" d="m117.66,28.05c-6.05-2.26-12.61-3.5-19.45-3.5-30.71,0-55.6,24.89-55.6,55.6,0,2.22.14,4.4.4,6.56-1.86-.29-3.77-.43-5.71-.43C16.7,86.26,0,102.97,0,123.57s16.7,37.31,37.31,37.31h110.57V5.53c-11.9,4.85-22.29,12.65-30.22,22.52Z"/><path class="cls-2" d="m209.68,119.28c0-1.76,1.43-3.19,3.19-3.19h82.89c0-.08,0-.16,0-.24,0-2.85-.28-5.62-.78-8.32h-103.84c-1.76,0-3.19-1.43-3.19-3.19s1.43-3.19,3.19-3.19h102.15c-1.84-5.32-4.65-10.19-8.22-14.4-.67-.36-1.19-.94-1.47-1.65-8.17-8.73-19.78-14.22-32.67-14.27C248.8,31.36,216.12,0,176.11,0c-9.99,0-19.51,1.98-28.23,5.53v155.35h102.86c22.62,0,41.33-16.68,44.53-38.41h-82.41c-1.76,0-3.19-1.43-3.19-3.19Zm-27.1-28.58c0-1.76,1.43-3.19,3.19-3.19h85.07c1.76,0,3.19,1.43,3.19,3.19s-1.43,3.19-3.19,3.19h-85.07c-1.76,0-3.19-1.43-3.19-3.19Zm96.75,52.61c0,7.4-6.02,13.42-13.42,13.42-6.13,0-11.11-4.98-11.11-11.11v-.19c0-1.76,1.43-3.19,3.19-3.19s3.19,1.43,3.19,3.19v.19c0,2.61,2.13,4.74,4.74,4.74,3.89,0,7.05-3.16,7.05-7.05s-3.16-7.05-7.05-7.05h-65.75c-1.76,0-3.19-1.43-3.19-3.19s1.43-3.19,3.19-3.19h65.75c7.4,0,13.42,6.02,13.42,13.42Z"/><path class="cls-4" d="m286.57,87.15c1.76,0,3.19-1.43,3.19-3.19v-.31c0-5.45,4.44-9.89,9.89-9.89,7.56,0,13.7,6.15,13.7,13.7s-6.15,13.7-13.7,13.7h-6.36c.71,2.06,1.28,4.19,1.69,6.37h4.67c11.07,0,20.07-9.01,20.07-20.07s-9.01-20.07-20.07-20.07c-8.97,0-16.27,7.3-16.27,16.27v.31c0,.41.08.79.22,1.15.5.54.99,1.09,1.47,1.65.45.24.95.39,1.49.39Z"/><path class="cls-4" d="m191.14,101.16c-1.76,0-3.19,1.43-3.19,3.19s1.43,3.19,3.19,3.19h103.84c-.41-2.18-.97-4.31-1.69-6.37h-102.15Z"/><path class="cls-4" d="m285.08,86.76c-.48-.56-.97-1.11-1.47-1.65.28.71.8,1.29,1.47,1.65Z"/><path class="cls-4" d="m196.98,133.08c0,1.76,1.43,3.19,3.19,3.19h65.75c3.89,0,7.05,3.16,7.05,7.05s-3.16,7.05-7.05,7.05c-2.61,0-4.74-2.13-4.74-4.74v-.19c0-1.76-1.43-3.19-3.19-3.19s-3.19,1.43-3.19,3.19v.19c0,6.13,4.98,11.11,11.11,11.11,7.4,0,13.42-6.02,13.42-13.42s-6.02-13.42-13.42-13.42h-65.75c-1.76,0-3.19,1.43-3.19,3.19Z"/><path class="cls-4" d="m274.02,90.71c0-1.76-1.43-3.19-3.19-3.19h-85.07c-1.76,0-3.19,1.43-3.19,3.19s1.43,3.19,3.19,3.19h85.07c1.76,0,3.19-1.43,3.19-3.19Z"/><path class="cls-4" d="m315.1,116.1h-19.35c-.01,2.16-.18,4.29-.48,6.37h19.83c5.8,0,10.52,4.72,10.52,10.52s-4.72,10.52-10.52,10.52c-1.76,0-3.19,1.43-3.19,3.19s1.43,3.19,3.19,3.19c9.32,0,16.89-7.58,16.89-16.89s-7.58-16.89-16.89-16.89Z"/><path class="cls-4" d="m212.87,116.1c-1.76,0-3.19,1.43-3.19,3.19s1.43,3.19,3.19,3.19h82.41c.31-2.08.47-4.21.48-6.37h-82.89Z"/></g></g></g></svg>