<?xml version="1.0" encoding="UTF-8"?><svg id="Layer_2" xmlns="http://www.w3.org/2000/svg" viewBox="0 0 300.86 252.28"><defs><style>.cls-1{fill:#ebebeb;}.cls-2{fill:#fff;}.cls-3{fill:#78d9ff;}.cls-4{opacity:.2;}</style></defs><g id="_ëÎÓÈ_1"><g><g class="cls-4"><path d="m257.33,83.62c-2.07-38.34-33.81-68.79-72.66-68.79-9.7,0-18.95,1.92-27.41,5.37-11.56,4.71-21.64,12.29-29.34,21.87-5.88-2.2-12.24-3.4-18.89-3.4-29.82,0-53.99,24.17-53.99,53.99,0,2.16.14,4.28.39,6.37-1.81-.28-3.66-.42-5.54-.42-20.01,0-36.23,16.22-36.23,36.23s16.22,36.23,36.23,36.23h207.25c24.15,0,43.72-19.57,43.72-43.72s-19.47-43.61-43.53-43.72Z"/><path d="m83.2,191.31c-2.13-.76-4.48.35-5.24,2.48l-6.25,17.49c-.76,2.13.35,4.48,2.48,5.24.46.16.92.24,1.38.24,1.68,0,3.26-1.05,3.86-2.72l6.25-17.49c.76-2.13-.35-4.48-2.48-5.24Z"/><path d="m124.32,191.31c-2.13-.76-4.48.35-5.24,2.48l-6.25,17.49c-.76,2.13.35,4.48,2.48,5.24.46.16.92.24,1.38.24,1.68,0,3.26-1.05,3.86-2.72l6.25-17.49c.76-2.13-.35-4.48-2.48-5.24Z"/><path d="m94.4,226.83c-2.13-.76-4.48.35-5.24,2.48l-6.25,17.49c-.76,2.13.35,4.48,2.48,5.24.46.16.92.24,1.38.24,1.68,0,3.26-1.05,3.86-2.72l6.25-17.49c.76-2.13-.35-4.48-2.48-5.24Z"/><path d="m135.72,226.83c-2.13-.76-4.48.35-5.24,2.48l-6.25,17.49c-.76,2.13.35,4.48,2.48,5.24.46.16.92.24,1.38.24,1.68,0,3.26-1.05,3.86-2.72l6.25-17.49c.76-2.13-.35-4.48-2.48-5.24Z"/><path d="m172.2,226.22c-2.13-.76-4.48.35-5.24,2.48l-6.25,17.49c-.76,2.13.35,4.48,2.48,5.24.46.16.92.24,1.38.24,1.68,0,3.26-1.05,3.86-2.72l6.25-17.49c.76-2.13-.35-4.48-2.48-5.24Z"/><path d="m213.52,226.22c-2.13-.76-4.48.35-5.24,2.48l-6.25,17.49c-.76,2.13.35,4.48,2.48,5.24.46.16.92.24,1.38.24,1.68,0,3.26-1.05,3.86-2.72l6.25-17.49c.76-2.13-.35-4.48-2.48-5.24Z"/><path d="m160.59,190.7c-1.14-.41-2.34-.27-3.33.27-.85.46-1.56,1.22-1.91,2.21l-6.25,17.49c-.76,2.13.35,4.48,2.48,5.24.46.16.92.24,1.38.24,1.68,0,3.26-1.05,3.86-2.72l6.25-17.49c.76-2.13-.35-4.48-2.48-5.24Z"/><path d="m201.7,190.7c-2.13-.76-4.48.35-5.24,2.48l-6.25,17.49c-.76,2.13.35,4.48,2.48,5.24.46.16.92.24,1.38.24,1.68,0,3.26-1.05,3.86-2.72l6.25-17.49c.76-2.13-.35-4.48-2.48-5.24Z"/><path d="m242.82,190.7c-2.13-.76-4.48.35-5.24,2.48l-6.25,17.49c-.76,2.13.35,4.48,2.48,5.24.46.16.92.24,1.38.24,1.68,0,3.26-1.05,3.86-2.72l6.25-17.49c.76-2.13-.35-4.48-2.48-5.24Z"/></g><g><path class="cls-2" d="m114.26,27.24c-5.88-2.2-12.24-3.4-18.89-3.4-29.82,0-53.99,24.17-53.99,53.99,0,2.16.14,4.28.39,6.37-1.81-.28-3.66-.42-5.54-.42C16.22,83.77,0,99.99,0,119.99s16.22,36.23,36.23,36.23h107.37V5.37c-11.56,4.71-21.64,12.29-29.34,21.87Z"/><path class="cls-1" d="m243.67,68.79C241.6,30.45,209.86,0,171.01,0c-9.7,0-18.95,1.92-27.41,5.37v150.86h99.88c24.15,0,43.72-19.57,43.72-43.72s-19.47-43.61-43.53-43.72Z"/><path class="cls-3" d="m69.55,176.48c-2.13-.76-4.48.35-5.24,2.48l-6.25,17.49c-.76,2.13.35,4.48,2.48,5.24.46.16.92.24,1.38.24,1.68,0,3.26-1.05,3.86-2.72l6.25-17.49c.76-2.13-.35-4.48-2.48-5.24Z"/><path class="cls-3" d="m110.66,176.48c-2.13-.76-4.48.35-5.24,2.48l-6.25,17.49c-.76,2.13.35,4.48,2.48,5.24.46.16.92.24,1.38.24,1.68,0,3.26-1.05,3.86-2.72l6.25-17.49c.76-2.13-.35-4.48-2.48-5.24Z"/><path class="cls-3" d="m80.74,212c-2.13-.76-4.48.35-5.24,2.48l-6.25,17.49c-.76,2.13.35,4.48,2.48,5.24.46.16.92.24,1.38.24,1.68,0,3.26-1.05,3.86-2.72l6.25-17.49c.76-2.13-.35-4.48-2.48-5.24Z"/><path class="cls-3" d="m122.07,212c-2.13-.76-4.48.35-5.24,2.48l-6.25,17.49c-.76,2.13.35,4.48,2.48,5.24.46.16.92.24,1.38.24,1.68,0,3.26-1.05,3.86-2.72l6.25-17.49c.76-2.13-.35-4.48-2.48-5.24Z"/><path class="cls-3" d="m158.54,211.38c-2.13-.76-4.48.35-5.24,2.48l-6.25,17.49c-.76,2.13.35,4.48,2.48,5.24.46.16.92.24,1.38.24,1.68,0,3.26-1.05,3.86-2.72l6.25-17.49c.76-2.13-.35-4.48-2.48-5.24Z"/><path class="cls-3" d="m199.87,211.38c-2.13-.76-4.48.35-5.24,2.48l-6.25,17.49c-.76,2.13.35,4.48,2.48,5.24.46.16.92.24,1.38.24,1.68,0,3.26-1.05,3.86-2.72l6.25-17.49c.76-2.13-.35-4.48-2.48-5.24Z"/><path class="cls-3" d="m141.69,178.34l-6.25,17.49c-.76,2.13.35,4.48,2.48,5.24.46.16.92.24,1.38.24,1.68,0,3.26-1.05,3.86-2.72l6.25-17.49c.76-2.13-.35-4.48-2.48-5.24-1.14-.41-2.34-.27-3.33.27v5.05-5.05c-.85.46-1.56,1.22-1.91,2.21Z"/><path class="cls-3" d="m188.05,175.86c-2.13-.76-4.48.35-5.24,2.48l-6.25,17.49c-.76,2.13.35,4.48,2.48,5.24.46.16.92.24,1.38.24,1.68,0,3.26-1.05,3.86-2.72l6.25-17.49c.76-2.13-.35-4.48-2.48-5.24Z"/><path class="cls-3" d="m229.17,175.86c-2.13-.76-4.48.35-5.24,2.48l-6.25,17.49c-.76,2.13.35,4.48,2.48,5.24.46.16.92.24,1.38.24,1.68,0,3.26-1.05,3.86-2.72l6.25-17.49c.76-2.13-.35-4.48-2.48-5.24Z"/></g></g></g></svg>