<?xml version="1.0" encoding="UTF-8"?><svg id="Layer_2" xmlns="http://www.w3.org/2000/svg" viewBox="0 0 330.96 256.21"><defs><style>.cls-1{fill:#ebebeb;}.cls-2{fill:#fff;}.cls-3{opacity:.2;}</style></defs><g id="_ëÎÓÈ_1"><g><g class="cls-3"><path d="m114.05,216.86c-1.13-1.96-3.64-2.63-5.6-1.5l-13.02,7.52v-15.03c0-2.26-1.84-4.1-4.1-4.1s-4.1,1.84-4.1,4.1v15.03l-13.02-7.52c-1.96-1.13-4.47-.46-5.6,1.5-1.13,1.96-.46,4.47,1.5,5.6l13.02,7.52-13.02,7.52c-1.96,1.13-2.63,3.64-1.5,5.6.76,1.32,2.14,2.05,3.55,2.05.69,0,1.4-.18,2.05-.55l13.02-7.52v15.03c0,2.26,1.84,4.1,4.1,4.1s4.1-1.84,4.1-4.1v-15.03l13.02,7.52c.65.37,1.35.55,2.05.55,1.42,0,2.8-.74,3.55-2.05,1.13-1.96.46-4.47-1.5-5.6l-13.02-7.52,13.02-7.52c1.96-1.13,2.63-3.64,1.5-5.6Z"/><path d="m282.81,90.77c-2.29-42.41-37.4-76.09-80.37-76.09-11.07,0-21.61,2.24-31.2,6.28-12.42,5.23-23.25,13.49-31.57,23.85-6.5-2.43-13.54-3.76-20.89-3.76-32.98,0-59.72,26.74-59.72,59.72,0,2.38.16,4.73.43,7.04-2-.31-4.05-.47-6.13-.47-22.13,0-40.07,17.94-40.07,40.07s17.94,40.07,40.07,40.07h229.25c26.71,0,48.36-21.65,48.36-48.36s-21.54-48.24-48.15-48.35Z"/><path d="m193.95,216.86c-1.13-1.96-3.64-2.63-5.6-1.5l-13.02,7.52v-15.03c0-2.26-1.84-4.1-4.1-4.1s-4.1,1.84-4.1,4.1v15.03l-13.02-7.52c-1.96-1.13-4.47-.46-5.6,1.5-1.13,1.96-.46,4.47,1.5,5.6l13.02,7.52-13.02,7.52c-1.96,1.13-2.63,3.64-1.5,5.6.76,1.32,2.14,2.05,3.55,2.05.69,0,1.4-.18,2.05-.55l13.02-7.52v15.03c0,2.26,1.83,4.1,4.1,4.1s4.1-1.84,4.1-4.1v-15.03l13.02,7.52c.65.37,1.35.55,2.05.55,1.42,0,2.8-.74,3.55-2.05,1.13-1.96.46-4.47-1.5-5.6l-13.02-7.52,13.02-7.52c1.96-1.13,2.63-3.64,1.5-5.6Z"/><path d="m271.59,216.86c-1.13-1.96-3.64-2.63-5.6-1.5l-13.02,7.52v-15.03c0-2.26-1.84-4.1-4.1-4.1s-4.1,1.84-4.1,4.1v15.03l-13.02-7.52c-1.96-1.13-4.47-.46-5.6,1.5-1.13,1.96-.46,4.47,1.5,5.6l13.02,7.52-13.02,7.52c-1.96,1.13-2.63,3.64-1.5,5.6.76,1.32,2.14,2.05,3.55,2.05.69,0,1.4-.18,2.05-.55l13.02-7.52v15.03c0,2.26,1.83,4.1,4.1,4.1s4.1-1.84,4.1-4.1v-15.03l13.02,7.52c.65.37,1.35.55,2.05.55,1.42,0,2.8-.74,3.55-2.05,1.13-1.96.46-4.47-1.5-5.6l-13.02-7.52,13.02-7.52c1.96-1.13,2.63-3.64,1.5-5.6Z"/></g><g><path class="cls-2" d="m126.38,30.13c-6.5-2.43-13.54-3.76-20.89-3.76-32.98,0-59.72,26.74-59.72,59.72,0,2.38.16,4.73.43,7.04-2-.31-4.05-.47-6.13-.47C17.94,92.66,0,110.6,0,132.73s17.94,40.07,40.07,40.07h117.89V6.28c-12.42,5.23-23.25,13.49-31.57,23.85Z"/><path class="cls-2" d="m100.78,202.18c-1.13-1.96-3.64-2.63-5.6-1.5l-13.02,7.52v-15.03c0-2.26-1.84-4.1-4.1-4.1s-4.1,1.84-4.1,4.1v15.03l-13.02-7.52c-1.96-1.13-4.47-.46-5.6,1.5-1.13,1.96-.46,4.47,1.5,5.6l13.02,7.52-13.02,7.52c-1.96,1.13-2.63,3.64-1.5,5.6.76,1.31,2.14,2.05,3.55,2.05.69,0,1.4-.18,2.05-.55l13.02-7.52v15.03c0,2.26,1.83,4.1,4.1,4.1s4.1-1.84,4.1-4.1v-15.03l13.02,7.52c.65.37,1.35.55,2.05.55,1.42,0,2.79-.74,3.55-2.05,1.13-1.96.46-4.47-1.5-5.6l-13.02-7.52,13.02-7.52c1.96-1.13,2.63-3.64,1.5-5.6Z"/><path class="cls-2" d="m153.86,193.16v15.03l-13.02-7.52c-1.96-1.13-4.47-.46-5.6,1.5-1.13,1.96-.46,4.47,1.5,5.6l13.02,7.52-13.02,7.52c-1.96,1.13-2.63,3.64-1.5,5.6.76,1.31,2.14,2.05,3.55,2.05.69,0,1.4-.18,2.05-.55l13.02-7.52v15.03c0,2.26,1.84,4.1,4.1,4.1v-52.47c-2.26,0-4.1,1.84-4.1,4.1Z"/><g><path class="cls-1" d="m269.53,76.09C267.24,33.68,232.13,0,189.16,0c-11.07,0-21.61,2.24-31.2,6.28v166.52h111.36c26.71,0,48.36-21.65,48.36-48.36s-21.54-48.24-48.15-48.35Z"/><path class="cls-1" d="m162.06,237.43v-15.03l13.02,7.52c.65.37,1.35.55,2.05.55,1.42,0,2.8-.74,3.55-2.05,1.13-1.96.46-4.47-1.5-5.6l-13.02-7.52,13.02-7.52c1.96-1.13,2.63-3.64,1.5-5.6-1.13-1.96-3.64-2.63-5.6-1.5l-13.02,7.52v-15.03c0-2.26-1.84-4.1-4.1-4.1v52.47c2.26,0,4.1-1.84,4.1-4.1Z"/><path class="cls-1" d="m258.32,202.18c-1.13-1.96-3.64-2.63-5.6-1.5l-13.02,7.52v-15.03c0-2.26-1.84-4.1-4.1-4.1s-4.1,1.84-4.1,4.1v15.03l-13.02-7.52c-1.96-1.13-4.47-.46-5.6,1.5-1.13,1.96-.46,4.47,1.5,5.6l13.02,7.52-13.02,7.52c-1.96,1.13-2.63,3.64-1.5,5.6.76,1.31,2.14,2.05,3.55,2.05.69,0,1.4-.18,2.05-.55l13.02-7.52v15.03c0,2.26,1.84,4.1,4.1,4.1s4.1-1.84,4.1-4.1v-15.03l13.02,7.52c.65.37,1.35.55,2.05.55,1.42,0,2.8-.74,3.55-2.05,1.13-1.96.46-4.47-1.5-5.6l-13.02-7.52,13.02-7.52c1.96-1.13,2.63-3.64,1.5-5.6Z"/></g></g></g></g></svg>