<?xml version="1.0" encoding="UTF-8"?><svg id="Layer_2" xmlns="http://www.w3.org/2000/svg" viewBox="0 0 332.37 255.76"><defs><style>.cls-1{fill:none;}.cls-2{fill:#ebebeb;}.cls-3{fill:#ebbf02;}.cls-4{fill:#fff;}.cls-5{fill:#78d9ff;}.cls-6{opacity:.2;}</style></defs><g id="_ëÎÓÈ_1"><g><path class="cls-6" d="m284.31,90.92c-2.29-42.33-37.33-75.94-80.22-75.94-9.55,0-18.7,1.67-27.19,4.73-14.05,5.06-26.28,13.92-35.46,25.35-6.49-2.42-13.51-3.76-20.85-3.76-32.92,0-59.6,26.69-59.6,59.6,0,2.38.16,4.72.43,7.03-2-.31-4.04-.47-6.12-.47-22.09,0-40,17.91-40,40s17.91,40,40,40h27.75l-23.96,39.22c-1.18,1.93-.57,4.46,1.36,5.64.67.41,1.4.6,2.13.6,1.38,0,2.73-.7,3.5-1.96l26.57-43.49h26.19l-9.13,14.95c-1.18,1.93-.57,4.45,1.36,5.63.67.41,1.4.6,2.13.6,1.38,0,2.73-.7,3.5-1.96l11.74-19.22h29.11l-26.1,42.73c-1.18,1.93-.57,4.45,1.36,5.63.67.41,1.4.6,2.13.6,1.38,0,2.73-.7,3.5-1.96l28.71-47h9.73v13.32l19.35.7c2.75.1,5.5.17,8.25.21,2.26.03,4.52.05,6.77.05-2.17,5.63-4.22,11.32-6.1,17.1-1.93,5.94-3.69,11.95-5.23,18.08-1.52,6.14-2.89,12.35-3.7,18.85,4.69-4.56,8.82-9.4,12.81-14.31,3.96-4.92,7.7-9.96,11.27-15.07,7.13-10.24,13.62-20.8,19.59-31.62l4.03-7.3h40.15c26.66,0,48.27-21.61,48.27-48.27s-21.5-48.15-48.06-48.26Z"/><g><polygon class="cls-1" points="161.6 172.47 161.6 185.79 168.45 172.47 161.6 172.47"/><path class="cls-4" d="m126.14,30.07c-6.49-2.42-13.51-3.76-20.85-3.76-32.92,0-59.6,26.68-59.6,59.6,0,2.38.16,4.72.43,7.03-2-.31-4.04-.47-6.12-.47C17.91,92.48,0,110.39,0,132.48s17.91,40,40,40h27.75l13.89-22.73c1.18-1.93,3.7-2.54,5.63-1.36,1.93,1.18,2.54,3.7,1.36,5.64l-11.28,18.46h26.19l28.71-47c1.18-1.93,3.7-2.54,5.63-1.36,1.93,1.18,2.54,3.7,1.36,5.64l-26.1,42.73h29.11l11.74-19.22c1.18-1.93,3.7-2.54,5.64-1.36s2.54,3.7,1.36,5.64l-9.13,14.95h9.73V4.73c-14.05,5.06-26.28,13.92-35.46,25.35Z"/><path class="cls-2" d="m269.02,75.94C266.73,33.62,231.69,0,188.8,0c-9.55,0-18.7,1.67-27.19,4.73v167.74h6.85l1.61-3.12c5.92-11.52,12.35-22.8,19.53-33.72,3.58-5.47,7.35-10.85,11.36-16.11,4.04-5.25,8.21-10.44,13.01-15.34-.71,6.82-2.03,13.34-3.5,19.81-1.49,6.45-3.23,12.78-5.15,19.03-1.98,6.48-4.17,12.87-6.52,19.18,2.3.01,4.61.04,6.91.1,2.75.07,5.5.14,8.25.27l19.66.92-4.97,9h40.15c26.66,0,48.27-21.61,48.27-48.27s-21.5-48.15-48.06-48.26Z"/><path class="cls-3" d="m213.96,162.55c-2.75-.13-5.5-.2-8.25-.27-2.3-.05-4.61-.08-6.91-.1,2.35-6.31,4.54-12.69,6.52-19.18,1.92-6.25,3.65-12.58,5.15-19.03,1.46-6.46,2.79-12.99,3.5-19.81-4.8,4.9-8.97,10.09-13.01,15.34-4.01,5.27-7.77,10.65-11.36,16.11-7.18,10.93-13.61,22.21-19.53,33.72l-1.61,3.12-6.85,13.32,19.35.7c2.75.1,5.5.17,8.25.21,2.26.03,4.52.05,6.77.05-2.17,5.63-4.22,11.32-6.1,17.1-1.93,5.94-3.69,11.95-5.23,18.08-1.52,6.14-2.89,12.35-3.7,18.85,4.69-4.56,8.82-9.4,12.81-14.31,3.96-4.92,7.7-9.96,11.27-15.07,7.13-10.24,13.62-20.8,19.59-31.62l4.03-7.3,4.97-9-19.66-.92Z"/><path class="cls-5" d="m43.79,211.69c-1.18,1.93-.57,4.45,1.36,5.64.67.41,1.4.6,2.13.6,1.38,0,2.73-.7,3.5-1.96l26.57-43.49h-9.61l-23.96,39.22Z"/><path class="cls-5" d="m87.27,148.38c-1.93-1.18-4.45-.57-5.63,1.36l-13.89,22.73h9.61l11.28-18.46c1.18-1.93.57-4.45-1.36-5.64Z"/><path class="cls-5" d="m94.42,187.42c-1.18,1.93-.57,4.45,1.36,5.64.67.41,1.4.6,2.13.6,1.38,0,2.73-.7,3.5-1.96l11.74-19.22h-9.61l-9.13,14.95Z"/><path class="cls-5" d="m137.89,124.11c-1.93-1.18-4.45-.57-5.63,1.36l-28.71,47h9.61l26.1-42.73c1.18-1.93.57-4.45-1.36-5.64Z"/><path class="cls-5" d="m116.16,215.2c-1.18,1.93-.57,4.45,1.36,5.63.67.41,1.4.6,2.13.6,1.38,0,2.73-.7,3.5-1.96l28.71-47h-9.61l-26.1,42.73Z"/><path class="cls-5" d="m159.64,151.89c-1.93-1.18-4.45-.57-5.64,1.36l-11.74,19.22h9.61l9.13-14.95c1.18-1.93.57-4.45-1.36-5.64Z"/></g></g></g></svg>