<?xml version="1.0" encoding="UTF-8"?><svg id="Layer_2" xmlns="http://www.w3.org/2000/svg" xmlns:xlink="http://www.w3.org/1999/xlink" viewBox="0 0 139.5 138.03"><defs><style>.cls-1{fill:none;}.cls-2{clip-path:url(#clippath);}.cls-3{fill:#484848;font-family:Antonio-Bold, Antonio;font-size:33.57px;font-variation-settings:'wght' 700;font-weight:700;}.cls-4{fill:#f58733;}.cls-4,.cls-5,.cls-6,.cls-7{fill-rule:evenodd;}.cls-5{fill:#128cba;}.cls-6{fill:#eda169;}.cls-7{fill:#00b0f0;}</style><clipPath id="clippath"><rect class="cls-1" width="139.5" height="84.75"/></clipPath></defs><g id="Layer_1-2"><g><g class="cls-2"><path class="cls-4" d="m68.87,66.17h-.02s.02,0,.02,0h.02s.08.06-.02,0h0Z"/><path class="cls-7" d="m139.25,68.78c.15.25.23.38.23.38l-.23-.22-.22-.22-.23-.22-.23-.22-.22-.22-.23-.22-.22-.22-.23-.22-.23-.22-.22-.22-.09-.09-.13-.13-.23-.21-.22-.21-.23-.21-.23-.21-.22-.21-.23-.21-.23-.21-.22-.2-.23-.2-.23-.2-.22-.2-.08-.07-.14-.13-.23-.2-.22-.2-.23-.2-.22-.2-.23-.19-.23-.19-.22-.19-.23-.19-.23-.18-.22-.18-.23-.18-.23-.18-.22-.17-.23-.17-.23-.17-.22-.16-.23-.16-.23-.16-.22-.16-.23-.15-.23-.15-.22-.15-.23-.14-.23-.14-.22-.14-.23-.14-.23-.13-.22-.13-.23-.13-.22-.12-.23-.12-.23-.12-.22-.11-.18-.09-.05-.02-.23-.11-.22-.1-.23-.1-.23-.09-.22-.09-.23-.09-.23-.08-.22-.08-.23-.07-.23-.07-.22-.07-.23-.06-.23-.06-.22-.06-.23-.05-.22-.05-.23-.04-.23-.04-.22-.03-.23-.03-.22-.03h0c-.07,0-.15-.02-.22-.02-.08,0-.15-.01-.23-.02h-.23s-.22-.02-.22-.02h-.23s-.23,0-.23,0h-.22s-.23.01-.23.01c-.07,0-.15,0-.23.01l-.22.02-.23.02-.23.02-.22.03-.23.03-.22.03-.23.04-.23.04-.23.05-.22.05-.23.05-.22.06-.23.06-.14.04-.08.02-.22.07-.23.07-.23.08-.22.08-.23.08-.23.08-.22.09-.23.09-.23.09-.22.1-.23.1-.23.1-.22.1-.23.11-.22.11-.23.11-.23.12-.22.12-.23.12-.23.12-.22.13-.23.13-.18.1-.05.03-.22.14-.23.14-.23.14-.22.14-.23.14-.11.07-.11.07-.22.14-.23.15-.23.14-.22.14-.23.15-.09.06-.13.09-.23.15-.23.15-.23.15-.23.15-.23.14-.22.14-.23.14-.22.14-.23.13-.22.13-.23.12-.15.08-.08.05-.23.12-.22.12-.23.12-.23.12-.23.11-.23.11-.23.11-.22.1-.23.1-.23.1c-.07.03-.15.06-.23.09l-.23.09-.23.09-.22.08-.23.08-.22.07-.23.07-.23.07-.23.06c-.07.02-.15.04-.22.06-.07.02-.15.04-.23.05-.07.02-.15.03-.23.05l-.23.04c-.07.01-.15.02-.23.04l-.21.03h-.01c-.07.01-.15.02-.22.03-.07,0-.15.02-.23.03-.07,0-.15.01-.23.02-.07,0-.15,0-.23.01-.07,0-.15,0-.23,0-.07,0-.15,0-.23,0s-.15,0-.22,0c-.07,0-.15,0-.23,0-.07,0-.15,0-.23-.01-.07,0-.15-.01-.23-.02-.07,0-.15-.02-.22-.03l-.23-.03-.23-.04c-.07-.01-.15-.03-.22-.04-.08-.01-.15-.03-.23-.05-.07-.02-.15-.03-.23-.05-.07-.02-.15-.04-.23-.06-.07-.02-.15-.04-.23-.06l-.23-.07c-.07-.02-.15-.05-.23-.07-.07-.03-.15-.05-.22-.08-.07-.03-.15-.06-.23-.09s-.15-.06-.23-.09c-.07-.03-.15-.07-.23-.1l-.15-.07-.07-.03c-.07-.03-.15-.07-.22-.11l-.23-.11-.23-.12-.22-.12-.23-.13-.22-.13-.23-.13-.23-.14-.22-.14-.23-.15-.23-.15-.23-.15-.23-.16-.22-.16-.23-.16-.23-.17-.23-.17-.23-.18-.23-.18-.19-.15-.04-.03-.23-.18-.23-.18-.23-.19-.22-.19-.23-.19-.23-.19-.23-.19-.23-.2-.22-.2-.23-.2-.23-.2-.23-.21-.22-.21-.23-.21-.23-.21-.16-.15-.06-.06-.22-.22-.23-.22-.22-.22-.23-.21-.23-.22-.22-.21-.23-.22-.22-.22-.23-.22c-.08-.08-.15-.15-.23-.23-.08-.08-.15-.16-.22-.23l-.15-.16-.07-.07-.23-.23-.23-.23-.23-.23-.22-.24-.23-.24-.22-.24c-.08-.09-.15-.17-.23-.25l-.07-.08-.15-.16c-.09-.1-.16-.18-.22-.25-.15-.17-.23-.26-.23-.26,0,0,.08,0,.23.03.06.01.14.02.22.04.07.01.14.03.23.05h.02s.21.04.21.04l.22.05.23.05.22.05.23.06.23.06.23.06.23.06.15.04.07.02.23.06.23.07.22.07.23.07.22.07.23.07.23.08.22.08.23.08.22.08.23.08.23.07.2.07h.02s.22.09.22.09l.23.08.23.08.23.08.22.08.23.09.23.09.23.09.23.09.22.09.23.09.23.09.23.09.22.09.23.09.23.09.17.07.05.02.23.09.23.09.22.09.23.09.23.08.23.08.23.08.22.08.23.08.23.07.22.07.23.07.22.07.23.07.23.06.22.06.23.06.23.06.22.05h0c.07.02.15.03.23.05.07.01.15.03.22.04l.23.04c.07.01.15.02.23.03l.23.03c.07,0,.15.02.23.02.07,0,.15.01.23.02h.23c.07.02.15.02.22.02.07,0,.15,0,.23,0h.23c.07,0,.15,0,.22-.01h.23s.23-.03.23-.03l.23-.02.22-.03.23-.03.23-.04.23-.04.23-.05.1-.02.13-.03c.07-.02.15-.04.22-.06l.23-.07.23-.07.23-.07.23-.08.23-.08.22-.08.23-.08.23-.08.23-.08.06-.02.16-.08.23-.11.22-.1.23-.1.23-.1.23-.1.23-.11.23-.11.22-.11.23-.11.23-.12.14-.08.08-.04.23-.12.23-.12.22-.12.23-.12.23-.13.23-.13.22-.13.23-.13.22-.13.23-.12.22-.12.07-.04.15-.09.23-.13.23-.13.23-.13.23-.13.22-.13.09-.05.14-.07.22-.12.23-.12.23-.12.22-.11.23-.11.17-.08.05-.03.22-.11.23-.11.23-.1.22-.1.23-.1.23-.1.22-.09.23-.09.23-.09.22-.08.23-.08.23-.08.22-.07.23-.07.22-.07.23-.07.23-.06.22-.06.23-.06.23-.06.22-.05.23-.05.23-.05.22-.04.23-.04.15-.02h.07s.22-.04.22-.04l.23-.03.23-.02.22-.02.23-.02h.22s.23-.02.23-.02h.23s.23,0,.23,0h.22s.23,0,.23,0h.22s.23.02.23.02l.23.02.22.02.23.03.23.03.22.03.23.04.23.04.22.05.23.05.23.05.22.06.23.06.1.03.13.04.22.07.23.08.23.08.22.08.23.09.22.09.23.1.23.1.22.11.23.11c.08.04.15.08.23.11l.22.12.23.12.23.13.22.13c.08.05.15.09.23.14l.23.14c.07.05.15.1.22.15.08.05.15.1.23.15s.15.1.23.16l.22.16c.08.06.15.11.23.17l.13.09.1.08.22.17.23.18.22.18.23.19.23.19.22.19.23.2.23.2.22.21.23.21.23.21.22.22.23.22.23.23.22.23.23.24.23.24.22.25.12.13.11.12.23.26.22.26.23.26.23.27.22.27.23.27.23.28.22.28.23.29.22.29.23.29.23.3.22.3.23.31.23.31.22.31.23.32.23.32.22.32.23.33.23.33.22.33.23.34.23.34.22.34v.02s.23.34.23.34l.23.36.22.36.23.36.22.37.23.37.23.37.22.38h0Z"/><path class="cls-5" d="m31.71,65.19l-.39-.19.39-.12.39-.12.39-.12h0l.39-.11.39-.11.39-.11.24-.06c.05-.02.11-.03.16-.05.13-.04.26-.09.39-.14.13-.05.26-.1.39-.16l.39-.16c.13-.05.26-.1.39-.15l.13-.05.27-.11.39-.16.39-.16h.02s.37-.2.37-.2l.39-.2.39-.2h.03s.37-.2.37-.2l.4-.2.39-.2.12-.06.28-.16.39-.23.39-.23.29-.17.1-.06c.13-.07.26-.15.4-.23.13-.08.26-.16.39-.24.13-.08.26-.16.39-.25.13-.08.26-.17.39-.25.13-.08.26-.17.39-.26l.39-.26.39-.27.39-.27.39-.27.39-.27.39-.28.39-.28.39-.28.39-.28.39-.28.19-.14.2-.14.4-.28.39-.28.39-.28.39-.28.39-.28.39-.28.4-.27.39-.27.39-.27.39-.26.39-.26.39-.25c.13-.08.26-.16.39-.25.13-.08.26-.16.39-.24.13-.08.26-.16.4-.24.13-.08.26-.15.39-.23.13-.07.26-.15.39-.22.13-.07.26-.14.39-.21.13-.07.26-.14.39-.21h0c.13-.07.26-.14.39-.2.13-.07.26-.13.39-.19.13-.06.26-.13.39-.18.13-.06.26-.12.39-.18.13-.06.26-.11.39-.17.13-.05.26-.11.4-.16.13-.05.26-.1.39-.15.13-.05.26-.09.39-.14.13-.05.26-.09.39-.13.13-.04.26-.08.39-.12.13-.04.26-.08.39-.11.13-.04.26-.07.39-.1.13-.03.26-.06.39-.09.13-.03.26-.06.39-.08.13-.03.26-.05.39-.07.13-.02.26-.04.39-.06.13-.02.26-.04.39-.05.13-.02.26-.03.39-.04.13-.01.26-.02.39-.03.13,0,.26-.01.39-.02.13,0,.26,0,.39,0s.26,0,.39,0,.26,0,.39.02c.13,0,.26.02.39.03l.19.02c.07,0,.14,0,.21,0,.13,0,.26.02.39.03.13.01.26.03.39.05.13.02.26.04.39.07.13.03.26.06.39.09s.26.07.39.1.26.07.39.11h.05s.35.11.35.11l.39.11.39.11.18.05.21.1.39.18.39.18.29.14.1.05.39.19.39.19.39.19h.02s.33.17.33.17l.05.03.32.19.07.04.39.24.1.06.29.18.39.24.4.24c.13.08.26.17.39.25.13.08.26.17.39.26.13.09.26.18.39.27l.05.04.34.25.39.28.4.28.39.28.39.28.39.28.12.09.27.21.4.31.39.31.39.31.39.32c.13.11.26.21.39.32l.09.08.3.26.4.34.39.34.39.34.39.34.39.34.39.34.4.34.39.34.39.34.39.34.29.25.1.09.39.35.39.35.39.35.39.35.39.34.39.34.39.34.39.34.39.33.39.33c.13.11.26.21.39.32.13.11.26.21.39.32.13.1.26.21.39.31.13.1.26.2.39.3.13.1.26.2.39.3.13.1.26.19.39.29.13.09.26.19.39.28.13.09.26.18.39.27.13.09.26.18.39.26.13.09.26.17.39.26.13.08.26.17.39.25l.07.05c.11.06.21.13.32.19.13.08.26.16.39.24.1.06.2.11.3.16l.1.04.39.17.39.17.11.05c.09.05.19.1.28.15.13.06.26.12.39.16.13.05.26.09.39.13.13.04.26.08.39.12.13.04.26.08.39.12l.12.04c.09.04.19.07.28.09.13.04.26.06.39.08.1.01.21.02.31.03h.08s.39.06.39.06l.39.05h.11c.1.02.19.03.29.04.13,0,.26,0,.39,0,.13,0,.26,0,.39-.02.13,0,.26-.02.39-.02.13,0,.26-.01.39-.01h.09c.1-.01.2-.03.3-.04.13-.02.26-.04.39-.07.13-.02.26-.05.4-.08.13-.03.26-.06.39-.09.13-.03.26-.07.39-.1s.26-.07.39-.12c.13-.04.26-.08.39-.13.13-.05.26-.09.39-.14.13-.05.26-.1.4-.15.13-.05.26-.11.39-.16h.03c.13-.06.25-.11.37-.15.13-.05.26-.1.39-.15.07-.03.14-.06.21-.1l.19-.09.39-.2.39-.2.08-.04.31-.16.4-.2.39-.2.39-.2.39-.2.17-.09.22-.11.4-.19.39-.19.39-.19.4-.19.39-.19.4-.19.39-.19.39-.19.39-.19.4-.19.39-.18.4-.18.39-.18.39-.17.39-.17c.13-.06.26-.11.4-.17l.39-.16.4-.16c.13-.05.26-.1.39-.15l.1-.04.3-.11c.13-.05.26-.09.39-.14.13-.05.26-.09.4-.13.13-.04.26-.08.39-.12.13-.04.26-.08.39-.12.13-.04.26-.07.39-.11.13-.03.26-.07.4-.1.13-.03.26-.06.39-.09.13-.03.26-.05.4-.08.13-.02.26-.05.39-.07.13-.02.26-.04.39-.05.13-.02.26-.03.39-.04.13-.01.26-.02.4-.03.13,0,.26-.01.39-.01.13,0,.26,0,.4,0,.13,0,.26,0,.39.02.13,0,.26.02.39.04.13.01.26.03.39.06l.17.03c.08.01.15.03.23.04.13.03.26.06.39.09.13.03.27.07.4.11.13.04.26.08.39.13.13.05.26.1.39.15.13.06.26.11.39.18.13.06.27.13.4.2.13.07.26.14.39.22.13.08.27.16.4.24.13.09.26.17.39.26.13.09.26.19.39.29.13.1.27.21.39.31.14.11.27.22.4.33.13.12.26.23.39.35h0s.4.38.4.38l.39.38.16.15.23.27.39.46.17.2c.08.09.15.18.23.26.14.16.27.32.39.48.14.18.27.35.39.51.07.1.14.19.21.28l.19.26.39.55.39.55-.39-.18-.39-.18-.38-.17h-.02c-.12-.07-.25-.14-.39-.2-.12-.06-.26-.11-.39-.17-.13-.05-.26-.1-.4-.15l-.18-.06-.21-.08c-.13-.05-.26-.1-.39-.14-.13-.04-.26-.09-.39-.13-.13-.04-.26-.08-.4-.11-.13-.03-.26-.07-.39-.1h-.07c-.11-.04-.22-.06-.33-.09-.13-.03-.26-.05-.39-.07-.13-.02-.26-.04-.39-.06-.13-.02-.26-.03-.39-.04-.13-.01-.26-.02-.4-.02-.13,0-.26,0-.39,0-.13,0-.26,0-.4.01-.13,0-.26.02-.39.03-.13.01-.26.03-.39.05-.13.02-.26.05-.39.07-.13.03-.26.06-.4.1-.13.04-.26.08-.39.12l-.14.05c-.08.03-.17.06-.25.09-.13.05-.26.1-.39.16-.13.06-.26.11-.39.18-.13.06-.26.13-.39.19-.13.07-.26.14-.4.21-.13.07-.26.15-.39.23-.13.08-.26.16-.4.24-.13.08-.26.17-.39.25-.13.09-.26.18-.39.27s-.26.18-.39.28c-.13.09-.26.19-.4.29-.13.1-.26.2-.39.29-.13.1-.26.2-.4.3-.13.1-.26.21-.39.31l-.39.32-.16.13-.23.19-.4.33-.39.33-.4.33-.39.33-.4.34-.39.34-.4.34-.39.34-.39.34-.39.34-.4.34-.39.34-.4.34-.39.33-.39.33-.39.33-.4.33-.29.23-.11.09c-.13.11-.26.22-.4.33-.13.11-.26.21-.39.32l-.39.32-.4.31-.3.24-.1.08-.39.31-.39.31-.13.1c-.09.07-.18.14-.27.2-.13.09-.26.18-.4.27-.13.09-.26.17-.39.26l-.08.06c-.1.08-.21.15-.31.22-.13.09-.26.18-.39.27-.13.08-.26.17-.39.25-.13.08-.26.16-.39.23-.13.07-.26.15-.39.22-.13.07-.26.14-.39.2-.13.07-.26.13-.4.19-.13.06-.26.12-.39.18-.13.06-.26.12-.39.17-.13.06-.26.11-.39.16-.13.05-.26.1-.39.15-.13.05-.26.1-.39.15l-.29.1-.11.03c-.13.04-.26.08-.39.12-.13.04-.26.07-.39.1-.13.03-.26.06-.39.09-.13.03-.26.05-.39.07-.13.02-.26.04-.39.06-.13.02-.26.03-.39.05-.13.01-.26.03-.39.04-.13,0-.26.02-.39.02-.13,0-.26,0-.39.01-.13,0-.26,0-.39,0-.13,0-.26,0-.39-.01-.13,0-.26-.01-.39-.02-.13,0-.26-.02-.39-.03-.13-.01-.26-.03-.39-.05-.13-.02-.26-.04-.39-.06-.13-.02-.26-.04-.39-.07-.13-.02-.26-.05-.39-.08-.13-.03-.26-.06-.39-.09-.13-.03-.26-.07-.39-.1-.13-.04-.26-.07-.39-.11-.13-.04-.26-.08-.39-.13-.13-.04-.26-.09-.39-.14-.13-.05-.26-.1-.39-.15-.13-.05-.26-.11-.39-.16-.13-.06-.26-.11-.39-.17-.13-.06-.26-.12-.39-.19-.13-.06-.26-.13-.39-.2h-.02c-.13-.07-.25-.14-.37-.2-.13-.07-.26-.14-.39-.21-.13-.07-.26-.14-.39-.22-.13-.07-.26-.15-.39-.23-.13-.08-.26-.16-.39-.24-.13-.08-.26-.16-.39-.25-.13-.08-.26-.17-.39-.25-.13-.09-.26-.17-.39-.26-.13-.09-.26-.18-.39-.27-.13-.09-.26-.19-.39-.28-.13-.09-.26-.19-.39-.29-.13-.1-.26-.2-.39-.29-.13-.1-.26-.2-.39-.3-.13-.1-.26-.2-.39-.31-.13-.1-.26-.21-.39-.31l-.39-.32-.39-.32-.39-.33-.39-.33-.39-.33-.4-.34-.39-.34-.39-.34-.39-.34-.25-.22-.14-.13-.39-.35-.4-.35-.39-.35-.39-.35-.39-.35-.39-.35-.39-.35-.4-.35-.39-.35-.39-.35-.32-.28-.08-.06-.39-.33-.4-.34-.39-.34-.39-.34-.39-.35-.1-.09-.29-.24-.39-.32-.4-.32-.39-.33-.39-.32-.2-.16c-.06-.05-.13-.11-.19-.16-.13-.1-.26-.2-.39-.31-.13-.1-.26-.19-.39-.29l-.39-.28c-.13-.09-.26-.19-.39-.29-.13-.1-.27-.2-.39-.3l-.05-.03-.35-.27-.21-.16-.14-.11-.05-.04h-.01s-.25-.16-.25-.16l-.14-.08-.39-.25-.39-.25-.06-.03-.34-.21-.39-.25-.24-.15-.15-.06-.39-.16-.39-.16-.05-.02-.35-.16-.39-.18-.24-.11c-.05-.03-.11-.05-.16-.07-.13-.05-.26-.08-.39-.11-.13-.03-.26-.06-.39-.1h-.04c-.12-.05-.24-.08-.36-.11-.13-.03-.26-.07-.39-.1-.13-.03-.26-.06-.39-.08-.13-.03-.26-.05-.39-.07-.13-.02-.26-.04-.39-.06-.13-.02-.26-.03-.39-.05s-.26-.03-.39-.04-.26-.02-.39-.02-.26-.01-.39-.01-.26,0-.39,0-.26,0-.39,0c-.13,0-.26,0-.39.02-.13,0-.26.01-.39.02-.13,0-.26.02-.39.03-.13.01-.26.03-.39.04-.13.02-.26.03-.39.05-.13.02-.26.04-.39.06-.13.02-.26.04-.4.07-.13.02-.26.05-.39.07-.13.03-.26.05-.39.08h-.05s-.34.09-.34.09c-.13.03-.26.06-.39.09-.13.03-.26.06-.39.1l-.39.1-.39.1-.39.11-.39.11-.4.12-.39.12-.39.12-.39.12-.39.12-.39.12-.39.12-.39.12-.4.12-.39.12-.39.12-.39.12-.25.07-.14.04-.39.11-.4.11-.39.1-.39.1-.39.1-.39.09-.39.09c-.13.03-.26.06-.39.09-.13.03-.26.06-.39.08-.13.03-.26.05-.39.07-.13.02-.26.05-.39.07-.13.02-.26.04-.39.06-.13.02-.26.04-.39.06-.13.02-.26.03-.39.05-.13.02-.26.03-.39.04-.13.01-.26.02-.39.03-.13,0-.26.02-.39.02h0l-.39.02-.39.02-.39.02-.32.02h-.08c-.13,0-.26-.01-.39-.02-.13,0-.26-.02-.39-.03l-.4-.03h-.14s-.26-.03-.26-.03l-.39-.04-.39-.03-.24-.02-.16-.03c-.13-.02-.26-.05-.39-.08l-.39-.1c-.08-.02-.15-.04-.23-.05l-.17-.04-.39-.1c-.13-.03-.27-.06-.39-.09-.13-.03-.27-.07-.39-.11-.14-.04-.27-.08-.39-.13-.07-.03-.13-.05-.2-.08l-.2-.08-.39-.17-.39-.17-.39-.17h-.02s-.38-.18-.38-.18l-.39-.19h0Z"/><path class="cls-7" d="m.25,54.73c-.15-.23-.22-.36-.23-.36,0,0,.09.05.25.14l.25.14.25.14.25.15.25.15.25.15.25.15.25.15.25.15.25.16.25.16.13.08.12.08.25.16.25.16.25.16.25.16.25.16.25.16.25.16.25.17.25.17.25.17.25.17.25.18.13.1.11.08.25.18.25.17.25.17.25.17.25.17.25.16.25.16.25.16.25.16.25.16.25.16.25.16.25.16.25.16.25.16.25.17.08.05.17.11.25.16.25.16.25.16.25.17.25.17.25.17.25.17.25.17.25.17.25.17.25.17.25.17.25.17.25.17.25.16.25.16.25.16.25.16.24.15h0s.25.15.25.15l.25.15.25.15.25.15.25.15.25.15.25.15.25.15.25.15.25.15.25.15.25.15.25.15.25.15.25.15.25.15.25.15.25.15.25.15.25.15.25.14.19.11.06.03.25.12.25.13.25.13.25.13.25.13.25.14.25.14.25.14.25.14.25.14.25.14.25.14.25.14.25.13.25.13.25.13.25.12.25.12.25.11.25.11.25.1.25.09.2.07.06.02.25.1.25.1.25.11.25.11.25.11.25.11.25.11.25.1.25.1.25.1.25.1.13.05.13.03.26.07.26.07.26.07.26.07.26.07.26.07.26.07.26.07.26.07.26.07.26.07h.04s.22.05.22.05l.26.05.26.05.26.04.26.04.26.04.26.04.26.03.26.03.26.03.26.03.26.02.26.02.26.02h.26s.26.02.26.02h.26s.26,0,.26,0h.26s.26,0,.26,0h.26s.26-.02.26-.02l.24-.02h.02s.26-.02.26-.02l.26-.02.27-.02.26-.02.27-.03.27-.03.27-.03.27-.04.27-.04.27-.05.27-.05.27-.05.27-.05.27-.06.27-.06.27-.06.27-.06.27-.07.27-.07.27-.07.27-.07.19-.05.08-.02.27-.07.27-.07.27-.08.27-.08.27-.08.27-.08.27-.08.27-.08.27-.08.27-.08.27-.08.27-.08.27-.08.27-.08.27-.08.27-.08.27-.08.27-.08.27-.08.27-.08.16-.05.11-.04.27-.09.27-.08.27-.08.27-.08.27-.08.27-.07.27-.07.27-.07.27-.07.27-.06.27-.06.27-.06.27-.06.27-.05.27-.05.27-.05.27-.05.27-.05.27-.05h.01s.25-.04.25-.04l.27-.03.27-.03.27-.03.27-.03.27-.03.27-.03.27-.02.26-.02.26-.02h.26s.26-.02.26-.02h.26s.26,0,.26,0h.26s.26.03.26.03l.26.02h.04s.22.01.22.01h.26s.26.03.26.03l.26.02.26.02.26.02.26.03.26.03.26.04.26.05.26.06.26.06c.09.02.17.05.26.07l.11.04.15.04.26.07.26.07.26.07.26.07.26.08.26.08.25.08.25.08.25.08.25.09c.17.06.25.09.25.09,0,0-.09.04-.28.12l-.27.12-.27.12-.27.11-.27.11-.27.11-.27.11-.27.1-.27.1-.27.1-.19.07-.08.02c-.09.03-.18.06-.27.09-.09.03-.18.06-.27.1-.09.03-.18.07-.27.11l-.28.12-.28.13-.28.13-.28.13-.28.13-.28.13-.28.13-.28.13-.19.08-.08.03-.28.12c-.09.04-.18.08-.28.13l-.28.14-.28.14-.28.15-.28.15-.28.15-.28.15-.28.15-.28.15-.28.15-.28.15-.28.15-.28.14-.19.1-.09.05-.28.17-.28.17-.28.17-.28.17-.28.17-.28.17-.28.17-.28.17-.28.17-.28.17-.28.17-.28.17-.28.17-.28.17-.28.17-.28.17-.28.17-.06.04-.21.13-.28.17-.28.17-.28.17-.28.17-.28.17-.28.17-.28.17-.28.17-.28.17-.28.16-.28.16-.28.16-.28.15-.28.15-.28.15-.28.14-.28.14-.28.13-.28.13-.15.07-.13.06-.28.13-.28.13-.28.13-.28.12-.27.12-.27.11-.27.11-.27.1-.27.09-.27.08-.26.07h0s-.27.09-.27.09l-.27.09-.27.09-.27.08-.27.08-.27.08-.27.07-.27.06-.27.06c-.09.02-.18.03-.27.05-.09.01-.18.02-.27.03-.09,0-.18.02-.26.02h-.06s-.21.04-.21.04l-.27.04-.27.04-.27.03-.27.03-.26.02-.26.02h-.26s-.26.02-.26.02h-.26s-.26,0-.26,0h-.26s-.26-.01-.26-.01h-.26s-.26-.03-.26-.03l-.26-.02-.26-.02-.26-.03-.26-.03-.26-.03-.26-.03-.26-.04-.26-.04-.26-.04-.26-.04-.26-.04h-.05s-.21-.07-.21-.07l-.26-.07-.26-.07-.26-.07-.26-.08-.26-.07-.26-.07-.26-.07-.26-.07-.26-.07-.26-.07-.26-.07-.26-.07-.08-.02-.17-.06-.25-.1-.25-.11-.25-.11-.25-.12-.25-.12-.25-.13-.25-.13-.25-.13-.25-.13-.25-.13-.25-.13-.25-.12-.06-.03-.2-.1-.25-.13-.25-.13-.25-.13-.25-.13-.25-.13-.15-.07-.1-.07-.25-.17-.25-.17-.25-.17-.25-.17-.25-.17-.19-.13-.06-.04-.25-.18-.25-.18-.25-.18-.25-.18-.25-.18-.25-.18-.25-.18-.25-.18-.25-.18-.25-.18-.25-.18-.21-.15-.04-.03-.25-.19-.24-.19-.25-.2-.24-.2-.24-.2-.24-.21-.24-.21-.24-.22-.24-.22-.24-.22-.24-.22-.24-.22-.24-.23-.24-.23-.24-.23-.24-.23-.24-.23-.24-.23-.24-.23-.24-.23-.24-.22-.24-.22-.04-.03-.2-.19-.24-.23-.24-.23-.24-.24-.24-.24-.24-.25-.24-.25-.24-.26-.24-.26-.24-.27-.24-.27-.24-.27-.24-.27-.24-.27-.24-.27-.24-.27-.24-.27-.24-.27-.24-.27-.13-.15-.1-.11-.24-.26-.24-.27-.24-.27-.24-.27-.24-.28-.24-.28-.24-.29-.24-.29-.24-.29-.23-.3-.23-.3-.23-.3-.23-.31-.23-.31-.23-.31-.23-.32-.23-.32-.23-.32-.23-.32-.23-.33-.23-.33-.23-.33-.23-.33-.23-.33-.23-.33-.23-.33-.23-.33-.15-.21-.08-.11-.23-.34-.23-.34-.23-.34-.23-.34-.23-.34-.23-.35-.23-.35-.23-.35-.23-.36.04-.02Z"/><path class="cls-4" d="m43.89,37.38c0,5.18,2.12,9.86,5.53,13.22l.03-.02.39-.25c.15-.1.3-.19.45-.28l.43-.26.44-.26.43-.25.44-.25.44-.24.44-.23.46-.23.44-.22.46-.21.45-.2.47-.2.46-.18.47-.18c.16-.06.31-.11.47-.17l.47-.16c.16-.05.32-.1.48-.15.16-.05.32-.09.48-.14.16-.04.32-.08.48-.12.16-.04.32-.08.48-.11.16-.04.32-.07.49-.1.16-.03.32-.06.49-.09.16-.03.33-.05.49-.08.17-.02.33-.05.5-.06.16-.02.33-.04.49-.05.17-.01.33-.03.5-.04.17-.01.33-.02.5-.02.17,0,.33,0,.5,0,.17,0,.34,0,.5,0,.17,0,.34.01.51.02.17,0,.35.02.52.04h.08s.15,0,.15,0c.47.02.14,0,.61.04.2.02.39.05.59.07.19.03.37.06.56.1.18.03.35.07.53.12.17.04.34.08.5.13.17.05.33.09.5.14h.01s1.57.45,1.57.45l.48.22,1.12.52.1.05.4.19.83.39.47.23.17.1.36.21.6.36.31.2.39.24.4.25.45.28s.06.04.09.06c3.22-3.34,5.19-7.88,5.19-12.88,0-10.24-8.29-18.54-18.51-18.54s-18.51,8.3-18.51,18.54h0Z"/><path class="cls-6" d="m81.84,46.98c-.43.87-.91,1.71-1.44,2.49l-.17.25.17-.23.4.34,1.48.15c.16.02.32.04.48.07l.33.06.25.05.2.04.3.06.27.06.26.06.26.06.26.07.25.07.25.07.1.03h.05s.29.09.29.09l.29.08.29.09.26.08.25.08.23.08.24.08.67.23.44.15.27.09.25.09.25.09.24.09.23.09.25.09.46.18.46.18,1.11.44.44.17.21.08.08.03.21.08.2.08.21.08.2.08.2.08.2.07.2.07.2.07.19.07.2.07.19.06.19.06.19.06.19.06.19.05h.03s.06-.1.06-.1l-9.68-5.61-4.28-1.59.13-.3-.15.31h0Z"/><path class="cls-6" d="m81.85,46.97l4.28,1.59,2.62.97,1.55-4.18-4.63-1.72-2.27-.84-.07.23-.16.53c-.27.91-.61,1.82-1,2.69l-.19.43-.13.3h0Z"/><path class="cls-6" d="m85.67,43.64l4.86.83.75-4.39-2.75-.47-4.49-.77-.05.53-.03.27c-.1.92-.26,1.88-.49,2.83l-.14.57.07-.23,2.27.84h0Z"/><path class="cls-6" d="m88.53,39.61h11.18v-4.46h-11.18l-4.49.77-.05-.53.04.55c.04.55.05,1.01.05,1.44s-.02.89-.05,1.44l-.04.55.05-.53,4.49.77h0Z"/><path class="cls-6" d="m88.53,35.15l2.75-.47-.75-4.39-4.45.76-2.67.98-.07-.25.13.52c.23.95.39,1.91.49,2.83l.03.27h0s.04.54.04.54c.04.55.05,1.01.05,1.44s-.02.89-.05,1.44l-.04.55.05-.53,4.49.77h11.18v-4.46h-11.18Z"/><path class="cls-6" d="m86.09,31.05l4.24-1.56-1.53-4.18-2.62.96-4.29,1.57.13.28.2.44c.39.87.72,1.78.99,2.7l.15.51.07.25,2.67-.98h0Z"/><path class="cls-6" d="m81.88,27.85l4.29-1.57,9.7-5.58-2.22-3.87-9.7,5.58-3.52,2.92-.18-.24.18.27c.53.79,1.01,1.63,1.43,2.49l.14.29-.13-.28h0Z"/><path class="cls-6" d="m80.43,25.33l3.52-2.92,2.15-1.78-2.84-3.43-3.8,3.15-1.87,1.55.15.16.39.41c.66.7,1.27,1.44,1.83,2.21l.29.4.18.24Z"/><path class="cls-6" d="m79.47,20.34l3.16-3.8-3.42-2.85-1.79,2.15-2.92,3.52.23.17.41.3c.76.56,1.51,1.18,2.2,1.84l.41.39-.15-.16,1.87-1.55Z"/><path class="cls-6" d="m74.49,19.36l2.92-3.52,5.6-9.7-3.85-2.23-5.6,9.7-1.59,4.29-.29-.13.3.15c.87.43,1.7.92,2.48,1.44l.25.17-.23-.17h0Z"/><path class="cls-6" d="m71.98,17.9l1.59-4.29.97-2.62-4.17-1.55-1.71,4.63-.84,2.27.23.07.53.16c.91.27,1.81.61,2.69,1l.43.19.29.13h0Z"/><path class="cls-6" d="m63.86,15.7l.77-4.5V0h-4.45v11.2l.77,4.5-.52.06.55-.04c.55-.04,1-.05,1.43-.05s.89.02,1.43.05l.55.04-.52-.06h0Z"/><path class="cls-6" d="m64.63,11.21l-.77,4.5.52.06.26.03c.92.1,1.87.26,2.83.49l.57.14-.23-.07.84-2.27.83-4.87-4.38-.75-.47,2.76Z"/><path class="cls-6" d="m60.95,15.7l-.77-4.5-.47-2.76-4.38.75.76,4.46.98,2.67-.25.07.52-.13c.95-.23,1.9-.39,2.83-.49l.26-.03.52-.05h0Z"/><path class="cls-6" d="m51.31,13.57l-5.57-9.72-3.86,2.22,5.57,9.71,2.91,3.53-.24.18.26-.18c.79-.53,1.63-1.01,2.48-1.43l.3-.15-.29.13-1.57-4.29h0Z"/><path class="cls-6" d="m47.46,15.79l-1.78-2.16-3.43,2.84,3.15,3.81,1.55,1.88.16-.15.41-.39c.7-.66,1.44-1.28,2.21-1.84l.4-.29.24-.18-2.91-3.53h0Z"/><path class="cls-6" d="m45.4,20.29l-3.79-3.16-2.85,3.42,2.15,1.79,3.51,2.93.16-.22.3-.42c.56-.77,1.18-1.51,1.84-2.21l.39-.41-.16.16-1.55-1.88h0Z"/><path class="cls-6" d="m44.41,25.27l-3.51-2.93-9.68-5.61-2.23,3.86,9.68,5.61,4.28,1.59-.13.3.15-.31c.43-.87.91-1.71,1.44-2.49l.17-.25-.16.22h0Z"/><path class="cls-6" d="m42.95,27.78l-4.28-1.59-2.62-.97-1.55,4.18,4.63,1.72,2.27.84.07-.23.16-.53c.27-.91.61-1.82,1-2.69l.19-.42.13-.3Z"/><path class="cls-6" d="m39.13,31.12l-4.86-.83-.75,4.39,2.75.47,4.49.77.05-.53.03-.26c.1-.93.26-1.88.49-2.83l.14-.57-.07.23-2.27-.84h0Z"/><path class="cls-6" d="m40.76,35.92l-4.49-.77h-11.18v4.46h11.18l4.49-.77.05.52-.04-.54c-.04-.55-.05-1.01-.05-1.44s.02-.89.05-1.44l.04-.55-.05.53Z"/><path class="cls-6" d="m40.76,38.84l-4.49.77-2.75.47.75,4.39,4.45-.76,2.67-.98.07.24-.13-.52c-.23-.95-.39-1.91-.49-2.83l-.03-.27h0s-.05-.53-.05-.53h0Z"/><path class="cls-6" d="m41.39,42.73l-2.67.98-4.24,1.56,1.53,4.18,2.62-.96,4.29-1.57-.13-.28-.2-.44c-.39-.87-.72-1.78-.99-2.7l-.15-.52-.07-.24h0Z"/><path class="cls-6" d="m42.92,46.91l-4.29,1.57-9.7,5.58,2.22,3.86,9.7-5.58,3.52-2.92.17.24-.18-.26c-.53-.79-1.01-1.63-1.43-2.49l-.14-.29.13.28h0Z"/><path class="cls-6" d="m44.37,49.43l-3.52,2.92-2.15,1.78,2.06,2.5.33-.22.37-.25.38-.26.38-.26.38-.27.38-.27.39-.27.39-.28,1-.72.2-.14.39-.28.79-.56.4-.28.24-.17-.11-.12c-.66-.7-1.27-1.44-1.83-2.21l-.29-.4-.17-.24h0Z"/><path class="cls-6" d="m55.52,12l-.97-2.66-4.22,1.56,1.72,4.69.85,2.31.21-.09.52-.23c.88-.39,1.8-.73,2.72-1.01l.48-.14.29-.09-1.59-4.34h0Z"/></g><text class="cls-3" transform="translate(7.84 127.59)"><tspan x="0" y="0">C</tspan></text><text class="cls-3" transform="translate(23.59 127.59)"><tspan x="0" y="0">E</tspan></text><text class="cls-3" transform="translate(36.96 127.59)"><tspan x="0" y="0">L</tspan></text><text class="cls-3" transform="translate(49.43 127.59)"><tspan x="0" y="0">S</tspan></text><text class="cls-3" transform="translate(64.26 127.59)"><tspan x="0" y="0">I</tspan></text><text class="cls-3" transform="translate(73.31 127.59)"><tspan x="0" y="0">U</tspan></text><text class="cls-3" transform="translate(90.03 127.59)"><tspan x="0" y="0">S</tspan></text><text class="cls-3" transform="translate(104.86 127.59)"><tspan x="0" y="0">L</tspan></text><text class="cls-3" transform="translate(117.33 127.59)"><tspan x="0" y="0">Y</tspan></text></g></g></svg>